<?xml version="1.0" standalone="no"?>
<!DOCTYPE svg PUBLIC "-//W3C//DTD SVG 20010904//EN"
 "http://www.w3.org/TR/2001/REC-SVG-20010904/DTD/svg10.dtd">
<svg version="1.0" xmlns="http://www.w3.org/2000/svg"

 width="1250.000000pt" height="618.000000pt" viewBox="0 0 1250.000000 618.000000"
 preserveAspectRatio="xMidYMid meet">

<g transform="translate(0.000000,618.000000) scale(0.100000,-0.100000)"
fill="white" stroke="none" color="white"> 
<path d="M2195 6039 c-540 -65 -1032 -309 -1405 -695 -291 -302 -484 -650
-584 -1054 -48 -194 -66 -346 -66 -555 0 -374 72 -687 234 -1020 338 -694 991
-1169 1762 -1281 147 -22 468 -24 604 -5 216 30 391 76 587 153 l102 41 -40
46 c-23 25 -51 63 -63 84 -25 44 -12 46 -192 -18 -768 -268 -1632 -56 -2206
542 -310 324 -512 750 -568 1203 -15 123 -12 417 5 539 100 700 531 1298 1160
1606 326 160 621 223 995 212 326 -9 558 -65 847 -202 873 -416 1349 -1370
1158 -2320 -13 -67 -33 -150 -44 -185 -11 -35 -18 -66 -15 -69 8 -8 95 18 167
51 77 35 74 31 108 215 104 575 -25 1195 -350 1684 -94 140 -162 224 -284 348
-351 355 -768 573 -1272 662 -138 24 -502 35 -640 18z"/>
<path d="M5300 5085 l0 -555 160 0 160 0 0 155 0 155 73 0 c255 0 413 116 448
329 38 230 -98 424 -322 460 -35 6 -166 11 -291 11 l-228 0 0 -555z m505 220
c19 -18 25 -35 25 -65 0 -30 -6 -47 -25 -65 -22 -22 -32 -25 -105 -25 l-80 0
0 90 0 90 80 0 c73 0 83 -3 105 -25z"/>
<path d="M1899 5233 c-112 -120 -235 -250 -272 -290 -54 -56 -67 -77 -62 -93
3 -11 15 -20 25 -20 11 0 121 108 276 271 245 257 258 269 274 252 9 -10 107
-115 216 -233 110 -118 218 -235 240 -259 32 -35 45 -42 62 -37 38 12 25 45
-45 120 -38 40 -160 170 -273 289 -112 119 -212 217 -220 217 -9 0 -108 -98
-221 -217z"/>
<path d="M6695 5331 c-62 -16 -116 -52 -146 -98 l-29 -47 0 67 0 67 -145 0
-145 0 0 -395 0 -395 145 0 145 0 0 178 c0 200 6 222 73 276 30 24 50 31 97
34 l60 4 0 159 c0 121 -3 159 -12 158 -7 -1 -26 -4 -43 -8z"/>
<path d="M7078 5321 c-73 -24 -113 -49 -169 -108 -91 -95 -126 -194 -115 -323
17 -205 180 -364 388 -377 96 -6 184 12 252 52 62 36 143 126 174 192 24 52
27 69 27 168 0 102 -2 115 -31 176 -40 83 -114 158 -199 200 -59 29 -77 33
-168 36 -80 2 -114 -1 -159 -16z m198 -271 c91 -44 101 -174 18 -239 -40 -32
-123 -29 -163 5 -78 65 -59 200 33 240 43 18 63 17 112 -6z"/>
<path d="M2476 4894 c-14 -13 -16 -50 -16 -250 l0 -234 -115 0 -114 0 -3 108
-3 107 -100 3 c-124 3 -125 3 -125 -125 l0 -93 -110 0 -110 0 -2 231 c-3 211
-5 233 -21 243 -15 9 -21 7 -33 -8 -11 -16 -14 -67 -14 -265 0 -135 4 -252 8
-259 7 -9 49 -12 178 -10 l169 3 3 108 3 107 49 0 49 0 3 -107 3 -108 169 -3
c129 -2 171 1 178 10 4 7 8 131 8 275 0 249 -1 263 -19 273 -15 7 -23 6 -35
-6z"/>
<path d="M2835 4363 c-241 -256 -365 -394 -365 -408 0 -25 18 -45 40 -45 9 0
171 162 359 360 189 198 347 360 351 360 4 0 158 -162 341 -359 184 -198 344
-363 357 -367 28 -8 52 11 52 40 0 32 -725 806 -755 806 -8 0 -179 -174 -380
-387z"/>
<path d="M10362 3768 l3 -573 148 -3 147 -3 0 576 0 575 -150 0 -150 0 2 -572z"/>
<path d="M5690 4304 c-154 -40 -305 -162 -369 -297 -149 -313 -7 -683 306
-804 83 -31 251 -43 342 -23 81 17 189 73 254 131 61 54 105 116 91 129 -5 4
-65 40 -134 79 l-124 70 -28 -33 c-41 -50 -109 -80 -184 -80 -86 0 -144 25
-197 84 -54 60 -71 116 -65 208 6 81 33 137 88 184 99 86 268 77 355 -17 l32
-36 124 71 c68 40 128 75 133 80 13 13 -38 83 -94 131 -61 53 -164 105 -241
124 -80 18 -217 18 -289 -1z"/>
<path d="M8428 4158 l-138 -41 0 -69 0 -68 -55 0 -55 0 0 -140 0 -140 55 0 55
0 0 -128 c0 -212 36 -303 140 -354 64 -32 156 -44 254 -33 l66 7 0 129 0 129
-60 0 c-51 0 -65 4 -85 25 -23 22 -25 31 -25 124 l0 100 83 3 82 3 3 138 3
137 -86 0 -85 0 0 110 c0 61 -3 110 -7 109 -5 0 -70 -19 -145 -41z"/>
<path d="M1419 3868 c-412 -437 -429 -455 -429 -476 0 -23 19 -42 41 -42 9 0
149 138 310 308 161 169 318 333 349 365 l56 58 300 -322 c164 -177 320 -343
345 -370 51 -55 71 -60 95 -24 21 32 19 34 -122 185 -391 418 -608 640 -623
640 -11 0 -143 -132 -322 -322z"/>
<path d="M3692 3998 c-9 -9 -12 -91 -12 -335 l0 -323 -155 0 -155 0 0 138 c0
94 -4 142 -12 150 -8 8 -54 12 -139 12 -103 0 -131 -3 -143 -16 -13 -12 -16
-41 -16 -150 l0 -134 -150 0 -150 0 0 309 c0 268 -2 312 -16 325 -18 19 -45
21 -62 4 -17 -17 -17 -699 0 -716 9 -9 74 -12 230 -12 205 0 218 1 228 19 5
11 10 78 10 150 l0 131 65 0 65 0 0 -131 c0 -72 5 -139 10 -150 10 -18 23 -19
236 -19 l224 0 10 26 c11 28 12 649 1 699 -4 22 -12 31 -31 33 -14 2 -31 -3
-38 -10z"/>
<path d="M6675 3986 c-116 -37 -207 -116 -258 -224 -30 -63 -32 -74 -32 -177
0 -104 2 -114 32 -176 127 -257 473 -320 681 -125 166 155 173 418 16 586 -85
91 -183 130 -318 129 -45 0 -99 -6 -121 -13z m179 -270 c65 -27 97 -99 77
-174 -16 -59 -51 -85 -120 -90 -56 -4 -61 -2 -96 30 -32 29 -38 42 -42 85 -7
70 17 120 71 144 49 22 67 23 110 5z"/>
<path d="M7721 3986 c-18 -6 -51 -27 -72 -44 l-39 -33 0 35 0 36 -145 0 -145
0 0 -395 0 -395 145 0 145 0 0 220 c0 285 9 310 113 310 34 0 49 -6 68 -26 24
-25 24 -27 27 -265 l3 -239 145 0 144 0 0 253 c0 140 -5 280 -11 312 -29 160
-126 245 -274 244 -38 0 -85 -6 -104 -13z"/>
<path d="M9327 3989 c-74 -17 -130 -60 -161 -122 l-16 -32 0 73 0 72 -145 0
-145 0 0 -395 0 -395 145 0 145 0 0 169 c0 99 5 182 11 202 24 72 95 119 179
119 l51 0 -3 157 c-2 94 -7 157 -13 159 -5 1 -27 -2 -48 -7z"/>
<path d="M9706 3980 c-237 -84 -348 -347 -243 -573 112 -239 434 -312 651
-149 110 83 161 202 154 356 -4 74 -10 102 -33 151 -39 81 -118 158 -202 198
-60 28 -80 32 -168 34 -81 3 -111 0 -159 -17z m221 -277 c75 -50 70 -196 -9
-239 -53 -30 -154 -9 -179 37 -48 91 -17 193 67 219 36 11 89 4 121 -17z"/>
<path d="M2221 3441 c-20 -20 -21 -31 -21 -336 l0 -315 -27 -1 c-16 -1 -83 -2
-150 -3 l-123 -1 0 122 c0 67 -4 133 -10 147 l-10 26 -134 0 c-98 0 -136 -3
-144 -13 -7 -8 -13 -69 -14 -148 l-3 -134 -150 1 -150 1 -3 308 c-1 214 -6
313 -14 322 -6 8 -23 13 -37 11 l-26 -3 -3 -354 c-2 -253 1 -358 9 -367 15
-19 429 -20 447 -2 8 8 12 56 12 150 l0 138 70 0 70 0 0 -138 c0 -94 4 -142
12 -150 18 -18 441 -17 457 2 8 9 11 115 9 371 -3 355 -3 358 -25 372 -19 13
-24 12 -42 -6z"/>
<path d="M3908 3161 c-44 -59 -152 -132 -235 -160 -46 -15 -87 -21 -155 -21
-99 0 -155 12 -255 53 -35 14 -64 22 -67 19 -2 -4 -14 -50 -26 -102 l-22 -95
38 -65 39 -65 -3 -166 c-6 -294 30 -493 123 -684 84 -174 183 -265 435 -405
52 -29 111 -63 131 -76 l37 -23 156 92 c292 171 363 238 452 422 82 169 115
349 114 620 -1 99 -1 189 -1 201 1 11 19 50 40 86 l40 65 -25 99 c-14 54 -27
100 -29 102 -2 2 -20 -5 -42 -16 -144 -73 -316 -85 -455 -32 -66 25 -173 105
-213 159 -16 22 -32 40 -35 40 -3 0 -21 -22 -42 -48z m207 -222 c149 -70 281
-76 486 -24 43 11 43 -24 1 -106 l-37 -72 3 -186 c5 -285 -27 -471 -108 -637
-70 -140 -165 -225 -412 -367 l-98 -56 -77 43 c-310 171 -398 258 -475 468
-56 156 -71 257 -72 514 l-1 231 -32 63 c-33 63 -40 94 -24 104 5 3 44 -3 86
-14 196 -50 410 -5 542 114 l48 43 55 -45 c30 -25 82 -58 115 -73z"/>
<path d="M3856 2608 c-3 -13 -6 -62 -6 -110 0 -49 -4 -88 -9 -88 -16 0 -53
-59 -62 -98 -11 -50 7 -115 42 -153 27 -29 29 -36 29 -119 0 -49 3 -95 6 -104
9 -23 169 -23 178 0 3 9 6 55 6 103 0 82 2 89 26 112 71 65 72 173 4 244 -28
29 -29 35 -32 130 l-3 100 -86 3 c-83 3 -87 2 -93 -20z"/>
<path d="M5830 2770 c0 -104 -4 -190 -9 -190 -5 0 -15 7 -22 17 -30 35 -111
63 -186 63 -101 0 -173 -28 -238 -94 -198 -198 -148 -593 89 -705 60 -28 173
-38 233 -22 23 6 63 27 88 46 l45 35 0 -35 0 -35 145 0 145 0 0 555 0 555
-145 0 -145 0 0 -190z m-90 -386 c97 -39 117 -181 35 -253 -31 -26 -44 -31
-90 -31 -44 0 -59 5 -86 27 -60 51 -73 117 -38 191 16 33 32 49 63 63 50 23
65 23 116 3z"/>
<path d="M7715 2949 c-4 -6 -85 -255 -180 -553 l-172 -541 165 -3 c117 -2 168
1 173 9 4 6 12 38 19 70 l13 59 163 0 163 0 16 -57 c9 -32 18 -64 20 -70 3
-10 46 -13 170 -13 126 0 165 3 164 13 0 6 -78 255 -173 552 l-173 540 -181 3
c-125 2 -183 -1 -187 -9z m234 -545 c22 -84 41 -155 41 -158 0 -9 -180 -7
-180 2 -2 23 86 329 91 319 4 -7 25 -80 48 -163z"/>
<path d="M6493 2646 c-104 -34 -204 -123 -251 -224 -25 -52 -27 -68 -27 -177
0 -116 1 -123 32 -186 88 -177 299 -265 525 -218 82 17 207 86 207 114 0 6
-40 43 -90 83 l-89 74 -43 -21 c-83 -40 -207 -22 -245 37 l-14 22 265 0 265 0
6 53 c22 171 -71 345 -223 420 -59 29 -75 32 -171 34 -68 2 -120 -2 -147 -11z
m206 -230 c28 -15 61 -56 61 -76 0 -6 -47 -10 -130 -10 -139 0 -146 3 -114 49
33 47 127 66 183 37z"/>
<path d="M8719 2646 c-292 -78 -393 -464 -180 -689 119 -126 325 -164 485 -89
68 32 140 91 168 139 l16 28 -119 69 -120 68 -22 -20 c-35 -31 -63 -42 -108
-42 -35 0 -47 6 -80 39 -26 26 -39 48 -40 67 -4 112 38 164 135 164 36 0 52
-6 80 -30 l34 -31 116 67 c64 37 116 72 116 79 0 18 -68 93 -114 124 -94 65
-249 89 -367 57z"/>
<path d="M9506 2640 c-113 -40 -187 -108 -240 -220 -29 -60 -31 -73 -31 -175
0 -103 2 -114 31 -175 40 -82 87 -136 155 -177 149 -89 349 -81 487 21 54 39
110 112 96 125 -5 4 -58 36 -117 70 -100 57 -137 68 -137 42 0 -17 -57 -41
-98 -41 -119 0 -174 150 -87 237 28 28 40 33 79 33 51 0 99 -20 114 -47 8 -14
23 -9 118 45 60 34 115 66 123 71 12 8 10 16 -14 51 -36 53 -88 93 -162 127
-81 38 -229 44 -317 13z"/>
<path d="M10323 2646 c-66 -21 -124 -60 -177 -115 -188 -201 -126 -545 118
-657 135 -61 317 -59 446 6 50 26 110 75 99 83 -2 2 -44 36 -92 77 l-88 73
-43 -21 c-48 -24 -135 -29 -183 -11 -30 11 -73 47 -73 61 0 4 119 8 264 8
l263 0 6 53 c15 128 -36 272 -126 353 -81 74 -142 96 -267 100 -71 3 -119 -1
-147 -10z m207 -231 c25 -13 60 -60 60 -80 0 -3 -58 -5 -130 -5 -139 0 -146 3
-114 49 34 47 127 66 184 36z"/>
<path d="M11113 2641 c-148 -51 -221 -165 -192 -301 22 -105 84 -153 259 -200
99 -27 124 -43 109 -71 -7 -14 -21 -19 -47 -19 -45 1 -78 18 -100 52 l-17 26
-119 -54 c-66 -30 -121 -56 -124 -58 -9 -10 31 -67 69 -100 71 -61 135 -79
274 -80 138 -1 211 17 279 69 107 82 127 252 40 353 -40 47 -123 84 -232 102
-84 14 -124 38 -103 64 23 27 79 20 111 -14 l28 -30 116 41 c64 23 116 45 116
48 0 4 -13 28 -30 54 -34 53 -101 101 -174 122 -69 21 -198 19 -263 -4z"/>
<path d="M11938 2641 c-73 -24 -112 -49 -170 -108 -220 -226 -112 -607 196
-689 103 -28 245 -10 331 41 63 37 133 114 168 185 30 61 32 71 32 175 0 103
-2 114 -32 178 -41 86 -116 160 -203 201 -57 27 -78 31 -165 33 -76 2 -113 -1
-157 -16z m198 -270 c54 -24 78 -74 71 -144 -4 -42 -10 -56 -41 -84 -31 -29
-42 -33 -90 -33 -68 0 -110 31 -127 92 -20 75 11 146 75 174 42 18 64 17 112
-5z"/>
<path d="M5645 798 c-21 -57 -35 -102 -35 -109 0 -5 22 -9 49 -9 49 0 50 0 85
57 20 32 36 61 36 65 0 14 -130 9 -135 -4z"/>
<path d="M400 778 c-34 -18 -51 -36 -70 -73 -24 -47 -25 -58 -25 -215 1 -184
10 -233 55 -284 62 -70 238 -75 312 -9 31 27 56 91 60 153 l3 55 -82 3 -83 3
0 -56 c0 -68 -13 -95 -44 -95 -47 0 -51 19 -51 222 0 176 1 191 19 204 24 17
28 17 50 1 12 -9 20 -31 24 -65 l5 -52 79 0 80 0 -7 58 c-8 70 -31 119 -68
146 -23 17 -47 22 -120 24 -81 3 -97 1 -137 -20z"/>
<path d="M1040 700 l0 -99 -36 24 c-47 32 -110 34 -147 5 -45 -36 -62 -100
-62 -240 0 -141 12 -175 76 -218 42 -29 108 -26 143 7 28 26 40 27 33 1 -5
-19 0 -20 69 -20 l74 0 0 320 0 320 -75 0 -75 0 0 -100z m-9 -208 c16 -54 8
-200 -11 -212 -50 -32 -70 4 -70 126 0 97 10 124 45 124 19 0 26 -8 36 -38z"/>
<path d="M1287 793 c-4 -3 -7 -147 -7 -320 l0 -313 80 0 80 0 0 320 0 320 -73
0 c-41 0 -77 -3 -80 -7z"/>
<path d="M2900 480 l0 -320 185 0 185 0 0 65 0 65 -105 0 -105 0 0 65 0 64 98
3 97 3 0 60 0 60 -97 3 -98 3 0 54 0 55 105 0 106 0 -3 68 -3 67 -182 3 -183
2 0 -320z"/>
<path d="M3346 793 c-3 -4 -6 -148 -6 -320 l1 -313 80 0 79 0 0 320 0 320 -73
0 c-41 0 -77 -3 -81 -7z"/>
<path d="M3857 793 c-4 -3 -7 -147 -7 -320 l0 -313 80 0 79 0 3 123 3 122 75
5 c93 7 135 29 168 90 21 39 23 54 18 113 -8 108 -52 163 -143 178 -59 10
-267 11 -276 2z m241 -140 c6 -9 12 -34 12 -54 0 -29 -6 -42 -27 -59 -15 -11
-36 -20 -47 -18 -18 3 -21 11 -24 67 -4 85 0 95 41 87 17 -3 38 -14 45 -23z"/>
<path d="M7085 786 c-53 -23 -78 -60 -83 -120 -4 -46 0 -62 24 -104 l28 -49
-39 -34 c-118 -104 -92 -272 49 -314 70 -21 113 -19 174 10 51 24 53 24 65 5
10 -17 23 -20 94 -20 46 0 83 3 83 6 0 4 -16 28 -36 56 l-36 49 30 58 c17 31
34 76 38 99 l7 42 -71 0 -70 0 -6 -35 c-4 -19 -10 -35 -15 -35 -4 0 -22 20
-40 45 l-32 44 40 36 c69 62 88 152 45 213 -39 56 -173 82 -249 48z m137 -101
c9 -21 7 -29 -16 -60 -31 -40 -45 -37 -66 14 -16 41 1 71 41 71 22 0 32 -6 41
-25z m-39 -330 c20 -29 37 -56 37 -58 0 -11 -61 -28 -79 -22 -20 6 -51 51 -51
73 0 12 39 62 48 62 4 -1 24 -25 45 -55z"/>
<path d="M7900 777 c-54 -28 -79 -67 -87 -136 l-6 -51 82 0 81 0 0 36 c0 45
15 74 40 74 46 0 66 -89 32 -145 -11 -17 -56 -69 -101 -117 -87 -92 -118 -148
-128 -228 l-6 -50 207 0 206 0 0 65 0 64 -107 3 -108 3 91 95 c118 123 128
143 122 237 -5 79 -20 108 -72 147 -22 17 -46 22 -114 24 -76 3 -93 0 -132
-21z"/>
<path d="M8391 778 c-54 -29 -81 -76 -81 -141 0 -57 21 -101 56 -120 l26 -14
-31 -13 c-46 -19 -65 -62 -65 -146 1 -80 19 -122 67 -158 25 -18 42 -21 142
-21 100 0 117 3 142 21 49 36 67 80 67 159 1 83 -19 126 -65 145 l-31 13 26
14 c35 18 56 63 56 118 0 107 -56 156 -184 163 -71 3 -87 1 -125 -20z m138
-87 c18 -11 26 -93 12 -120 -15 -28 -57 -28 -72 0 -7 13 -9 40 -5 67 8 56 30
75 65 53z m8 -253 c17 -22 24 -68 17 -115 -10 -66 -44 -92 -78 -57 -19 18 -22
133 -6 165 12 21 52 26 67 7z"/>
<path d="M9290 700 c0 -55 -3 -100 -6 -100 -3 0 -19 11 -36 25 -46 38 -110 35
-153 -8 -41 -41 -55 -102 -55 -237 0 -115 17 -169 61 -201 57 -41 141 -34 174
15 15 20 15 20 15 -7 0 -27 0 -27 75 -27 l75 0 0 320 0 320 -75 0 -75 0 0
-100z m-20 -185 c18 -22 19 -207 1 -228 -18 -23 -48 -21 -61 2 -14 28 -13 214
2 229 16 16 43 15 58 -3z"/>
<path d="M10247 793 c-4 -3 -7 -147 -7 -320 l0 -313 75 0 75 0 2 218 3 217 33
-170 c19 -93 38 -191 44 -218 l10 -47 62 0 62 0 39 208 c46 237 50 232 50 -50
l0 -158 73 0 72 0 0 320 0 320 -109 0 c-61 0 -112 -3 -114 -8 -3 -4 -20 -87
-38 -184 -18 -98 -34 -176 -36 -174 -3 3 -73 352 -73 364 0 5 -217 1 -223 -5z"/>
<path d="M1603 631 c-47 -22 -83 -71 -83 -114 l0 -28 73 3 c70 3 72 4 75 30 6
55 82 43 82 -13 0 -33 -5 -36 -117 -68 -96 -28 -123 -59 -123 -142 0 -34 7
-73 15 -89 18 -35 62 -60 105 -60 42 0 99 25 107 47 6 15 8 14 13 -7 5 -23 10
-25 75 -28 l70 -3 -3 198 c-2 125 -8 207 -15 222 -20 41 -69 62 -155 67 -63 4
-85 1 -119 -15z m147 -287 c0 -57 -14 -84 -43 -84 -32 0 -47 18 -47 57 0 27 6
37 33 53 49 30 57 26 57 -26z"/>
<path d="M2071 639 c-55 -17 -79 -38 -97 -84 -34 -91 4 -157 119 -201 39 -15
78 -32 85 -38 17 -13 11 -56 -10 -69 -26 -17 -68 7 -68 38 0 24 -2 25 -71 25
l-72 0 6 -41 c7 -50 46 -95 96 -109 63 -17 143 -12 191 13 57 28 80 72 80 150
0 73 -18 93 -120 132 -41 15 -81 32 -87 38 -19 15 -15 45 7 57 26 14 60 -3 60
-30 0 -18 7 -20 71 -20 l71 0 -7 37 c-10 53 -21 70 -58 89 -38 20 -149 27
-196 13z"/>
<path d="M4413 631 c-47 -22 -83 -71 -83 -113 0 -28 0 -28 70 -28 62 0 70 2
70 19 0 23 25 51 45 51 19 0 45 -28 45 -48 0 -31 -16 -42 -90 -63 -137 -38
-159 -67 -152 -196 3 -40 44 -90 82 -98 47 -10 106 4 134 32 l26 26 0 -27 c0
-26 1 -26 73 -26 l72 0 -3 197 c-4 222 -10 245 -70 270 -19 8 -68 17 -106 19
-57 4 -80 1 -113 -15z m147 -281 c0 -59 -18 -90 -52 -90 -22 0 -31 6 -39 26
-13 36 -3 62 34 85 47 28 57 25 57 -21z"/>
<path d="M5004 640 c-12 -4 -31 -21 -43 -36 l-21 -27 0 32 0 31 -75 0 -75 0 0
-240 0 -240 74 0 75 0 3 151 c3 145 4 152 27 170 15 12 39 19 67 19 l44 0 0
75 0 75 -27 -1 c-16 0 -38 -4 -49 -9z"/>
<path d="M5212 638 c-48 -16 -92 -71 -92 -113 l0 -35 70 0 c61 0 70 2 70 18 0
10 6 26 13 37 18 24 62 14 70 -17 10 -36 -10 -57 -71 -73 -31 -8 -77 -25 -102
-38 -37 -18 -47 -29 -59 -65 -18 -59 -7 -125 29 -165 26 -29 33 -32 89 -32 53
1 64 4 91 30 l30 29 0 -27 c0 -27 0 -27 73 -27 l72 0 -3 192 c-4 218 -11 246
-69 273 -43 21 -166 28 -211 13z m136 -298 c-6 -57 -21 -80 -54 -80 -27 0 -47
30 -42 63 3 22 60 67 86 67 11 0 14 -10 10 -50z"/>
<path d="M5897 636 c-51 -19 -63 -31 -83 -81 -22 -58 -12 -109 29 -150 27 -27
68 -46 164 -80 21 -7 27 -55 9 -73 -24 -24 -70 -5 -74 31 -3 27 -5 27 -73 27
l-69 0 0 -31 c0 -77 58 -121 170 -126 64 -4 82 -1 119 19 57 29 81 74 81 148
0 84 -13 96 -162 151 -52 18 -58 23 -58 49 0 20 6 29 22 33 29 8 58 -9 58 -34
0 -18 6 -20 68 -17 l67 3 -3 30 c-4 44 -20 69 -55 90 -40 24 -158 30 -210 11z"/>
<path d="M6313 631 c-68 -31 -78 -61 -78 -231 0 -173 10 -200 82 -232 63 -28
198 -23 240 8 49 36 58 67 61 211 3 115 1 137 -17 178 -16 36 -29 50 -63 65
-58 26 -167 27 -225 1z m145 -228 c2 -138 2 -142 -20 -154 -18 -10 -24 -8 -40
11 -15 19 -18 41 -18 137 0 130 8 156 48 151 l27 -3 3 -142z"/>
<path d="M9634 639 c-42 -12 -90 -68 -105 -121 -7 -26 -9 -84 -7 -144 8 -168
53 -219 198 -219 112 0 168 41 185 136 l7 36 -59 1 c-80 1 -91 -3 -95 -41 -3
-27 -7 -33 -33 -35 -35 -4 -55 18 -55 64 0 64 1 64 127 64 l116 0 -5 83 c-7
104 -25 142 -81 168 -45 20 -138 24 -193 8z m107 -89 c14 -8 19 -21 19 -50 l0
-40 -46 0 -46 0 7 38 c3 20 14 43 23 50 19 15 19 15 43 2z"/>
<path d="M11013 631 c-47 -22 -83 -71 -83 -113 0 -28 0 -28 70 -28 62 0 70 2
70 19 0 23 25 51 45 51 19 0 45 -28 45 -48 0 -32 -17 -43 -87 -61 -77 -20
-129 -46 -139 -70 -27 -66 -19 -159 18 -198 41 -43 134 -43 182 2 l26 24 0
-24 c0 -24 2 -25 73 -25 l72 0 -3 197 c-4 222 -10 245 -70 270 -19 8 -68 17
-106 19 -57 4 -80 1 -113 -15z m147 -281 c0 -59 -18 -90 -52 -90 -22 0 -31 6
-39 26 -13 36 -3 62 34 85 47 28 57 25 57 -21z"/>
<path d="M11890 633 c-73 -38 -98 -118 -87 -283 10 -161 57 -205 212 -199 94
4 124 20 160 80 17 29 20 52 20 164 0 144 -13 189 -67 229 -40 29 -188 35
-238 9z m140 -102 c5 -11 10 -71 10 -134 0 -96 -3 -118 -18 -137 -15 -19 -22
-21 -39 -11 -16 8 -23 25 -29 67 -7 62 -1 204 10 222 11 19 54 14 66 -7z"/>
<path d="M5580 400 l0 -240 75 0 75 0 0 240 0 240 -75 0 -75 0 0 -240z"/>
<path d="M11350 633 c0 -3 30 -116 66 -250 73 -266 73 -273 8 -273 l-34 0 0
-55 0 -55 65 0 c87 0 129 18 154 68 17 34 151 529 151 560 0 8 -24 12 -74 12
-87 0 -77 16 -102 -162 -10 -71 -21 -128 -24 -128 -4 0 -14 55 -24 123 -27
185 -15 167 -107 167 -43 0 -79 -3 -79 -7z"/>
<path d="M2400 240 l0 -80 75 0 75 0 0 80 0 80 -75 0 -75 0 0 -80z"/>
</g>
</svg>
